<svg width="40" height="20" viewBox="0 0 40 20" fill="none" xmlns="http://www.w3.org/2000/svg">
<path d="M40 2.32458e-06C40 2.62644 39.4827 5.22716 38.4776 7.65367C37.4725 10.0802 35.9993 12.285 34.1421 14.1421C32.285 15.9993 30.0802 17.4725 27.6537 18.4776C25.2272 19.4827 22.6264 20 20 20C17.3736 20 14.7728 19.4827 12.3463 18.4776C9.91982 17.4725 7.71503 15.9993 5.85786 14.1421C4.00069 12.285 2.5275 10.0802 1.52241 7.65367C0.517315 5.22716 -2.2961e-07 2.62644 0 2.34336e-07L12 2.32458e-06C12 1.05058 12.2069 2.09086 12.609 3.06147C13.011 4.03207 13.6003 4.91399 14.3431 5.65686C15.086 6.39972 15.9679 6.989 16.9385 7.39104C17.9091 7.79308 18.9494 8 20 8C21.0506 8 22.0909 7.79308 23.0615 7.39104C24.0321 6.989 24.914 6.39972 25.6569 5.65686C26.3997 4.91399 26.989 4.03207 27.391 3.06147C27.7931 2.09087 28 1.05058 28 2.32458e-06H40Z" fill="white"/>
<path d="M40 2.32458e-06C40 2.62644 39.4827 5.22716 38.4776 7.65367C37.4725 10.0802 35.9993 12.285 34.1421 14.1421C32.285 15.9993 30.0802 17.4725 27.6537 18.4776C25.2272 19.4827 22.6264 20 20 20C17.3736 20 14.7728 19.4827 12.3463 18.4776C9.91982 17.4725 7.71503 15.9993 5.85786 14.1421C4.00069 12.285 2.5275 10.0802 1.52241 7.65367C0.517315 5.22716 -2.2961e-07 2.62644 0 2.34336e-07L12 2.32458e-06C12 1.05058 12.2069 2.09086 12.609 3.06147C13.011 4.03207 13.6003 4.91399 14.3431 5.65686C15.086 6.39972 15.9679 6.989 16.9385 7.39104C17.9091 7.79308 18.9494 8 20 8C21.0506 8 22.0909 7.79308 23.0615 7.39104C24.0321 6.989 24.914 6.39972 25.6569 5.65686C26.3997 4.91399 26.989 4.03207 27.391 3.06147C27.7931 2.09087 28 1.05058 28 2.32458e-06H40Z" fill="url(#paint0_linear_2965_42701)"/>
<defs>
<linearGradient id="paint0_linear_2965_42701" x1="40" y1="20" x2="0" y2="1.49012e-06" gradientUnits="userSpaceOnUse">
<stop stop-color="#E4B07C"/>
<stop offset="1" stop-color="#F5D8BC"/>
</linearGradient>
</defs>
</svg>
